<svg xmlns="http://www.w3.org/2000/svg" viewBox="0 0 1000 1000" xml:space="preserve"><switch><g><circle fill="#382B73" cx="500" cy="500" r="398"/><circle fill="#473080" cx="500" cy="500" r="344.3"/><path fill="#382B73" d="M551.2 599.3H536.3c22.5-12.7 37.6-36.7 37.6-64.4 0-1.2 0-2.3-.1-3.4 0-.4 0-.8-.1-1.2 0-.7-.1-1.4-.2-2.2 0-.5-.1-1-.1-1.5-.1-.6-.2-1.3-.2-1.9-.1-.5-.1-1-.2-1.5v-.2c-5.7-35.2-36.2-62-72.9-62s-67.2 26.9-72.9 62v.2c-.1.5-.1 1-.2 1.5-.1.6-.2 1.3-.2 1.9-.1.5-.1 1-.1 1.5-.1.7-.1 1.4-.2 2.2 0 .4-.1.8-.1 1.2-.1 1.1-.1 2.3-.1 3.4 0 27.6 15.2 51.7 37.6 64.4H449c-44.3 0-80.1 35.9-80.1 80.1V733c0 10.4 8.4 18.8 18.8 18.8H612.7c10.4 0 18.8-8.4 18.8-18.8v-53.7c-.2-44.2-36.1-80-80.3-80zM418.7 432.3l34.1-37.3c1.4-1.5 3.4-2.4 5.5-2.4H574c4.1 0 7.4-3.3 7.4-7.4V255.6c0-4.1-3.3-7.4-7.4-7.4H426.1c-4.1 0-7.4 3.3-7.4 7.4v176.7zM655.7 415.5l-7.5 10.9-6.6 9.6c27.6 19.1 45.6 51 45.6 87s-18.1 67.9-45.6 87l6.6 9.6 7.5 10.9c34-23.6 56.3-63 56.3-107.4s-22.3-83.9-56.3-107.6z"/><path fill="#382B73" d="m626.3 458-14.1 20.4c14.1 9.8 23.4 26.1 23.4 44.6s-9.3 34.8-23.4 44.6l7 10.1 7.2 10.3c20.6-14.3 34.1-38.1 34.1-65-.2-26.9-13.7-50.7-34.2-65zM387.9 567.6c-14.1-9.8-23.4-26.1-23.4-44.6s9.3-34.8 23.4-44.6l-7-10.1-7.2-10.3c-20.6 14.3-34.1 38.1-34.1 65s13.5 50.7 34.1 65l14.2-20.4z"/><path fill="#382B73" d="M312.8 523c0-36 18.1-67.9 45.6-87l-6.6-9.6-7.5-10.9c-34 23.6-56.3 63-56.3 107.4 0 44.5 22.3 83.8 56.3 107.4l7.5-10.9 6.6-9.6c-27.5-18.9-45.6-50.8-45.6-86.8z"/><g><path fill="#177BC0" d="M612.5 731.9h-225c-10.4 0-18.8-8.4-18.8-18.8v-53.7c0-44.3 35.9-80.1 80.1-80.1h102.4c44.3 0 80.1 35.9 80.1 80.1V713c0 10.4-8.4 18.9-18.8 18.9z"/><path fill="#1CAEE4" d="M589.7 731.9H410.3c-9.4 0-17-7.6-17-17v-63.4c0-39.9 32.3-72.2 72.2-72.2h68.9c39.9 0 72.2 32.3 72.2 72.2v63.4c.1 9.4-7.5 17-16.9 17z"/><circle fill="#00A58C" cx="500" cy="521" r="67.2"/><path fill="#177BC0" d="M550.5 579.3h-101c10.9 16.3 29.4 27.1 50.5 27.1s39.6-10.8 50.5-27.1z"/><g><circle fill="#FEDE3A" cx="500" cy="514.9" r="73.9"/></g><g><path fill="#E7AD27" d="M500 565c-36.8 0-67.2-26.8-72.9-62-.6 3.9-1 7.9-1 11.9 0 40.8 33.1 73.9 73.9 73.9s73.9-33.1 73.9-73.9c0-4.1-.3-8-1-11.9-5.7 35.1-36.1 62-72.9 62z"/></g><g><path fill="#FEDE3A" d="M418.7 235.6v176.7l34.1-37.3c1.4-1.5 3.4-2.4 5.5-2.4H574c4.1 0 7.4-3.3 7.4-7.4V235.6c0-4.1-3.3-7.4-7.4-7.4H426.1c-4.1-.1-7.4 3.3-7.4 7.4z"/><path fill="#E7AD27" d="M573.9 361.4H458.2c-2.1 0-4.1.9-5.5 2.4l-34.1 37.3v11.1l34.1-37.3c1.4-1.5 3.4-2.4 5.5-2.4h115.7c4.1 0 7.4-3.3 7.4-7.4V354c0 4.1-3.3 7.4-7.4 7.4z"/><path fill="#EF5A9D" d="M554.5 345.3H446c-4.1 0-7.4-3.3-7.4-7.4v-84.7c0-4.1 3.3-7.4 7.4-7.4h108.5c4.1 0 7.4 3.3 7.4 7.4v84.7c0 4.1-3.3 7.4-7.4 7.4z"/><path fill="#A72973" d="M554.5 245.8h-4.2c.2 2.5.4 5.1.4 7.6 0 44.1-35.7 79.8-79.8 79.8-11.5 0-22.4-2.4-32.3-6.8v11.5c0 4.1 3.3 7.4 7.4 7.4h108.5c4.1 0 7.4-3.3 7.4-7.4v-84.7c0-4.1-3.3-7.4-7.4-7.4z"/><circle fill="#FFF" cx="466.7" cy="296" r="9"/><circle fill="#FFF" cx="500" cy="296" r="9"/><circle fill="#FFF" cx="533.3" cy="296" r="9"/><path fill="#D1D3D4" d="M466.7 300.9c-4.2 0-7.8-2.9-8.7-6.9-.2.7-.2 1.4-.2 2.1 0 5 4 9 9 9s9-4 9-9c0-.7-.1-1.4-.2-2.1-1.2 3.9-4.7 6.9-8.9 6.9z"/><g><path fill="#D1D3D4" d="M500 300.9c-4.2 0-7.8-2.9-8.7-6.9-.2.7-.2 1.4-.2 2.1 0 5 4 9 9 9s9-4 9-9c0-.7-.1-1.4-.2-2.1-1.1 3.9-4.7 6.9-8.9 6.9z"/></g><g><path fill="#D1D3D4" d="M533.3 300.9c-4.2 0-7.8-2.9-8.7-6.9-.2.7-.2 1.4-.2 2.1 0 5 4 9 9 9s9-4 9-9c0-.7-.1-1.4-.2-2.1-1.1 3.9-4.6 6.9-8.9 6.9z"/></g></g><g><path fill="#FFF" d="M655.7 395.5 641.5 416c27.6 19.1 45.6 51 45.6 87s-18.1 67.9-45.6 87l14.1 20.4c34-23.6 56.3-63 56.3-107.4.1-44.5-22.2-83.8-56.2-107.5z"/><path fill="#FFF" d="M635.5 503c0 18.5-9.3 34.8-23.4 44.6l14.1 20.4c20.6-14.3 34.1-38.1 34.1-65s-13.5-50.7-34.1-65l-14.1 20.4c14.2 9.8 23.4 26.1 23.4 44.6z"/><path fill="#D1D3D4" d="m612.1 547.6 7 10.1c16.9-13.2 27.6-32.8 27.6-54.7 0-21.8-10.7-41.4-27.6-54.7l-7 10.1c14.1 9.8 23.4 26.1 23.4 44.6 0 18.4-9.2 34.8-23.4 44.6z"/><path fill="#D1D3D4" d="m641.5 590 6.6 9.6c30.5-22.5 50.2-57.4 50.2-96.6 0-39.2-19.7-74.1-50.2-96.6l-6.6 9.6c27.6 19.1 45.6 51 45.6 87 .1 36-18 67.9-45.6 87z"/><g><path fill="#FFF" d="m344.3 610.4 14.1-20.4c-27.6-19.1-45.6-51-45.6-87s18.1-67.9 45.6-87l-14.1-20.4c-34 23.6-56.3 63-56.3 107.4 0 44.5 22.3 83.8 56.3 107.4z"/><path fill="#FFF" d="M364.5 503c0-18.5 9.3-34.8 23.4-44.6L373.7 438c-20.6 14.3-34.1 38.1-34.1 65s13.5 50.7 34.1 65l14.1-20.4c-14.1-9.8-23.3-26.2-23.3-44.6z"/><path fill="#D1D3D4" d="m387.9 458.4-7-10.1c-16.9 13.2-27.6 32.8-27.6 54.7 0 21.8 10.7 41.4 27.6 54.7l7-10.1c-14.1-9.8-23.4-26.1-23.4-44.6s9.2-34.8 23.4-44.6z"/><path fill="#D1D3D4" d="m358.5 416-6.6-9.6c-30.5 22.5-50.2 57.4-50.2 96.6 0 39.2 19.7 74.1 50.2 96.6l6.6-9.6c-27.6-19.1-45.6-51-45.6-87-.1-36 18-67.9 45.6-87z"/></g></g></g></g></switch></svg>